<svg version="1.1" id="Layer_1" xmlns="http://www.w3.org/2000/svg" xmlns:xlink="http://www.w3.org/1999/xlink" x="0px" y="0px"
	 width="100%" viewBox="0 0 500 500" enable-background="new 0 0 500 500" xml:space="preserve">
<path fill="#f0f9ff" opacity="1.000000" stroke="none" 
	d="
M238.000000,501.000000 
	C158.666687,501.000000 79.833374,501.000000 1.000042,501.000000 
	C1.000028,334.333405 1.000028,167.666779 1.000014,1.000132 
	C167.666565,1.000088 334.333130,1.000088 500.999756,1.000044 
	C500.999847,167.666519 500.999847,334.333038 500.999939,500.999786 
	C413.500000,501.000000 326.000000,501.000000 238.000000,501.000000 
M380.904724,259.500000 
	C380.904572,254.335815 380.910248,249.171600 380.903412,244.007431 
	C380.835297,192.485504 348.793579,143.759918 301.073090,124.390747 
	C259.362152,107.460762 218.626526,111.159775 180.785141,135.271683 
	C146.293228,157.249359 125.719307,189.268616 122.037018,230.297958 
	C120.063873,252.283493 121.065987,274.565674 121.317627,296.707245 
	C121.424126,306.077911 129.693512,314.437744 141.616959,314.398438 
	C214.414536,314.158295 287.213318,314.289398 360.011688,314.268219 
	C372.999146,314.264465 380.803040,306.483856 380.888641,293.484070 
	C380.961029,282.489807 380.904297,271.494720 380.904724,259.500000 
M174.543030,368.875702 
	C172.883163,366.257263 171.257233,367.403870 169.236847,368.618591 
	C164.142334,371.681549 159.035858,370.842590 155.839523,366.732422 
	C152.907104,362.961731 153.061371,356.892883 156.179535,353.352264 
	C159.675461,349.382751 164.693085,348.974762 169.661743,352.263885 
	C170.577438,352.869965 171.475296,353.502991 172.515747,354.215607 
	C174.199738,352.243805 175.694122,350.493988 177.167252,348.769043 
	C169.880203,340.956635 157.746216,340.403625 150.149246,347.339905 
	C143.102127,353.774139 142.432251,364.855408 148.653046,372.089447 
	C155.160004,379.656219 167.371262,380.444397 175.252518,374.047028 
	C177.690308,372.068268 176.720886,370.874512 174.543030,368.875702 
M206.381546,356.280029 
	C205.311249,355.250214 204.354706,354.056915 203.150787,353.219116 
	C198.157486,349.744354 189.800293,349.805847 184.767303,353.239349 
	C180.268860,356.308197 178.165146,362.129120 179.492767,367.754303 
	C180.765656,373.147583 184.224411,376.590240 189.479248,377.723083 
	C195.574188,379.036987 201.610718,378.510834 205.845734,373.212372 
	C209.880249,368.164734 209.859116,362.536011 206.381546,356.280029 
M258.933563,360.429871 
	C258.933563,357.339935 258.933563,354.250031 258.933563,351.254028 
	C255.632584,351.254028 253.046066,351.254028 250.086472,351.254028 
	C250.086472,356.181732 250.128143,360.805084 250.074753,365.427368 
	C250.021225,370.062836 250.321075,374.686066 255.016785,377.088470 
	C259.573120,379.419556 264.004852,378.497772 266.474304,376.365662 
	C270.704498,377.201721 273.717072,377.797089 276.903503,378.426849 
	C276.903503,368.646179 276.903503,359.942139 276.903503,351.186890 
	C274.110748,351.186890 271.686188,351.186890 269.028229,351.186890 
	C268.789307,356.344604 268.990814,361.350098 268.104431,366.154877 
	C267.785919,367.881531 264.847565,369.124878 263.104858,370.588776 
	C261.718781,368.848297 260.089264,367.239838 259.044922,365.314056 
	C258.486786,364.284760 258.937927,362.708191 258.933563,360.429871 
M308.754120,362.832123 
	C303.767578,366.192474 302.623718,370.821411 305.747742,374.998413 
	C308.262848,378.361267 313.503082,379.305969 318.550629,377.361267 
	C319.539215,376.980408 320.669342,376.425873 321.620941,376.593689 
	C324.270111,377.060822 326.859680,377.865723 329.313812,378.496368 
	C329.816345,377.203339 330.029480,376.907684 330.032227,376.610077 
	C330.076935,371.782745 330.138062,366.954926 330.109283,362.127716 
	C330.062378,354.261383 326.336029,350.269836 318.533081,350.581848 
	C314.362061,350.748657 310.237640,352.080811 305.493988,353.003357 
	C306.747070,355.709473 307.537811,357.417114 308.300507,359.064178 
	C317.807190,355.843231 320.260864,356.364044 320.847290,361.439362 
	C317.067474,361.791962 313.287903,362.144531 308.754120,362.832123 
M346.341461,356.684479 
	C349.029358,357.342163 351.717224,357.999847 354.595917,358.704254 
	C355.428680,357.094971 356.248749,355.510223 357.483276,353.124542 
	C354.085205,352.216400 351.175049,351.116486 348.170258,350.701111 
	C341.457764,349.773224 336.381073,352.555328 335.289185,357.374023 
	C334.223236,362.078186 336.802979,365.071075 343.979553,367.475128 
	C345.080139,367.843811 346.281647,368.080444 347.223541,368.701263 
	C348.017761,369.224762 348.502747,370.217438 349.124603,371.002411 
	C348.888947,371.522430 348.653290,372.042450 348.417664,372.562469 
	C344.414154,371.691040 340.410614,370.819580 336.146545,369.891418 
	C335.528564,371.157776 334.746368,372.760681 333.909729,374.475128 
	C338.973999,378.367767 344.526978,378.958984 350.224640,377.822357 
	C354.018768,377.065430 356.900330,374.838593 357.258057,370.469788 
	C357.619659,366.053375 355.083679,363.704773 351.380859,362.251495 
	C349.374329,361.463959 347.201019,361.060516 345.267242,360.139069 
	C342.993011,359.055420 342.463593,357.693115 346.341461,356.684479 
M298.978790,371.000580 
	C295.740631,371.775604 294.297363,370.485382 294.398102,367.176880 
	C294.487335,364.246185 294.416779,361.310669 294.416779,358.284821 
	C297.065552,358.010406 299.127045,357.796814 301.232422,357.578705 
	C301.232422,355.636932 301.232422,354.050140 301.232422,352.303772 
	C298.878235,352.107758 296.792328,351.934082 294.637482,351.754669 
	C294.469055,349.343842 294.321350,347.229584 294.156372,344.868439 
	C291.338837,344.868439 288.774780,344.868439 286.159119,344.868439 
	C285.098145,347.738647 287.535980,352.172943 282.327087,352.659454 
	C282.644226,354.391144 282.748352,356.200134 283.340637,357.831940 
	C283.891907,359.350555 285.363678,360.591095 285.703796,362.116089 
	C286.127441,364.015686 285.855652,366.082825 285.796204,368.075012 
	C285.682037,371.900421 286.059265,375.615906 290.105347,377.321991 
	C294.083618,378.999542 298.084290,378.895111 302.075287,376.071381 
	C301.274048,374.303436 300.546234,372.697418 298.978790,371.000580 
M222.110901,377.278503 
	C222.110901,365.248169 222.110901,353.217834 222.110901,341.210754 
	C219.093185,341.210754 216.565018,341.210754 214.146439,341.210754 
	C214.146439,353.646667 214.146439,365.668304 214.146439,377.878387 
	C216.773102,377.878387 219.067291,377.878387 222.110901,377.278503 
M238.331512,367.868103 
	C238.526947,360.671112 238.833496,360.297516 246.903946,357.449982 
	C246.903946,355.342499 246.903946,353.230164 246.903946,350.165833 
	C243.923264,351.414856 241.465042,352.444946 239.006805,353.475037 
	C239.139725,353.113068 239.272629,352.751099 239.405548,352.389160 
	C236.393417,351.776062 233.381287,351.162994 230.149857,350.505249 
	C230.149857,360.305908 230.149857,369.000824 230.149857,377.613525 
	C233.041199,377.613525 235.581924,377.613525 238.331726,377.613525 
	C238.331726,374.410400 238.331726,371.594604 238.331512,367.868103 
z"/>
<path fill="#02AEEF" opacity="1.000000" stroke="none" 
	d="
M380.904724,260.000000 
	C380.904297,271.494720 380.961029,282.489807 380.888641,293.484070 
	C380.803040,306.483856 372.999146,314.264465 360.011688,314.268219 
	C287.213318,314.289398 214.414536,314.158295 141.616959,314.398438 
	C129.693512,314.437744 121.424126,306.077911 121.317627,296.707245 
	C121.065987,274.565674 120.063873,252.283493 122.037018,230.297958 
	C125.719307,189.268616 146.293228,157.249359 180.785141,135.271683 
	C218.626526,111.159775 259.362152,107.460762 301.073090,124.390747 
	C348.793579,143.759918 380.835297,192.485504 380.903412,244.007431 
	C380.910248,249.171600 380.904572,254.335815 380.904724,260.000000 
M303.505188,196.851227 
	C303.505188,196.851227 303.671387,197.040268 303.765015,197.875763 
	C304.135529,199.319031 304.908508,200.801697 304.772034,202.195312 
	C304.610779,203.841934 304.045227,206.403854 302.980011,206.813385 
	C300.573334,207.738647 298.370819,207.315720 297.740448,203.647522 
	C297.074677,199.773270 295.100006,196.143707 294.103333,192.301865 
	C292.633820,186.637726 288.863983,184.914490 283.337067,185.239609 
	C284.302032,189.049286 285.351959,192.659470 286.119812,196.328674 
	C288.187927,206.211380 290.135742,216.119263 292.044647,226.815918 
	C291.977295,228.287689 291.909943,229.759460 291.793304,232.307709 
	C290.767609,228.765991 290.061615,226.328125 289.237000,223.152237 
	C289.065216,222.427582 288.893463,221.702927 288.723297,220.229630 
	C286.704254,213.162903 284.685242,206.096191 282.633942,198.578857 
	C282.485931,198.297180 282.261383,198.104843 281.968658,197.226089 
	C279.283051,189.812195 276.597473,182.398300 273.680054,174.344421 
	C259.662231,178.412750 246.342987,181.797180 233.349274,186.152771 
	C208.691315,194.418259 184.218979,203.237671 159.671661,211.833054 
	C155.332352,213.352493 151.639999,215.832275 151.535995,220.815842 
	C151.291580,232.528671 151.457718,244.250076 151.457718,255.968002 
	C153.103775,251.897766 153.885742,247.815796 153.956711,243.721512 
	C154.008560,240.729492 155.192795,239.550858 157.910629,239.154556 
	C162.186523,238.531052 166.424408,237.598068 170.715179,237.143509 
	C173.275238,236.872299 174.189224,235.856842 174.050262,233.359741 
	C173.898773,230.637344 174.015869,227.900009 174.015869,225.169189 
	C174.502716,225.176071 174.989563,225.182938 175.476395,225.189819 
	C176.035019,228.799011 176.593658,232.408203 177.143402,235.960083 
	C182.154694,235.217911 186.402344,234.553116 190.660614,233.965149 
	C201.596390,232.455185 201.598267,232.468811 200.745712,220.122726 
	C201.152374,218.449265 201.559052,216.775803 201.989716,215.982117 
	C202.452179,221.182190 202.914642,226.382263 203.392105,231.751068 
	C212.215317,230.358871 220.367813,229.072495 228.925568,227.722183 
	C228.925568,219.853165 228.925568,212.257370 228.925568,204.661560 
	C229.170532,204.653534 229.415512,204.645508 229.660477,204.637482 
	C230.232300,211.971619 230.804123,219.305756 231.423187,227.245819 
	C241.647614,225.919693 251.620407,224.715714 261.542114,223.181290 
	C262.400055,223.048615 263.452423,220.754532 263.508057,219.426529 
	C263.793427,212.612503 263.781921,205.786026 264.366302,199.089233 
	C264.534454,199.108673 264.702606,199.128098 264.978210,199.582703 
	C264.978210,199.582703 265.141418,200.000183 265.023010,200.503876 
	C265.061340,200.671997 265.099670,200.840103 265.028595,201.884293 
	C266.063080,222.095627 267.097565,242.306976 268.143188,262.735901 
	C273.089325,262.735901 277.607330,262.735901 282.125366,262.735901 
	C282.161560,262.554504 282.197784,262.373138 282.234009,262.191742 
	C278.615479,261.366089 274.996979,260.540466 270.595947,259.536255 
	C270.595947,247.464615 270.595947,235.446625 270.595947,223.456894 
	C277.425446,225.116104 277.425446,225.116104 293.463745,258.110901 
	C293.463745,254.423080 293.463745,250.327896 293.463745,245.996780 
	C297.693329,246.516693 301.640289,247.439194 305.578674,247.404175 
	C317.523224,247.297974 329.466705,246.876984 341.403931,246.409439 
	C342.715118,246.358078 343.983429,245.211304 345.271606,244.572601 
	C345.099548,244.103149 344.927460,243.633713 344.755371,243.164276 
	C343.132385,243.164276 341.506836,243.104492 339.886871,243.174484 
	C332.251770,243.504440 324.620087,243.933105 316.982239,244.161224 
	C315.695435,244.199646 314.384369,243.426819 313.943756,243.048141 
	C324.017639,241.683975 334.236542,240.954224 343.754028,237.155945 
	C343.688568,236.673737 343.623108,236.191528 343.557678,235.709305 
	C336.194305,236.097977 328.830963,236.486633 321.467621,236.875290 
	C321.471252,236.406937 321.474854,235.938583 321.478485,235.470245 
	C324.987915,234.596558 328.497314,233.722870 332.811371,232.950012 
	C333.913086,232.736786 335.105103,232.721573 336.097748,232.269089 
	C338.159271,231.329300 340.115082,230.157623 342.114349,229.081284 
	C339.739807,229.010132 337.365265,228.938980 334.085693,228.779282 
	C329.693939,229.033142 325.302185,229.287003 320.910431,229.540863 
	C320.937744,229.211899 320.965027,228.882935 320.992340,228.553970 
	C327.564697,227.169220 334.137054,225.784470 341.131256,224.310837 
	C339.373688,216.253082 332.417847,222.867523 329.341766,219.478699 
	C332.738495,218.795349 335.879700,218.163406 339.832642,217.368149 
	C336.190338,208.639374 332.773193,200.450195 329.329376,192.197128 
	C332.647400,191.045395 334.878540,192.406128 336.312714,195.574951 
	C338.158966,199.654434 339.828430,203.836395 342.017303,207.724701 
	C342.677490,208.897522 344.762817,209.608261 346.291077,209.811859 
	C347.081787,209.917175 348.758301,208.542404 348.877899,207.676544 
	C349.653198,202.063141 341.031616,190.418457 335.269165,189.198563 
	C329.792694,188.039215 324.058289,187.759171 320.100555,182.813141 
	C319.297607,181.809723 317.461792,181.493011 316.032257,181.156891 
	C311.675415,180.132462 307.316345,179.047028 302.899567,178.364105 
	C295.667267,177.245834 288.388794,176.426071 280.957123,175.457916 
	C280.936157,180.111694 282.223267,182.082275 286.189972,182.075989 
	C294.277557,182.063187 300.340668,185.117493 302.249237,193.760712 
	C302.349274,194.213760 302.781708,194.593414 303.018799,195.518417 
	C303.198853,195.782059 303.378876,196.045700 303.456329,196.437943 
	C303.456329,196.437943 303.474640,196.601395 303.505188,196.851227 
M229.899261,238.060181 
	C240.131653,237.097443 250.364059,236.134705 260.596466,235.171982 
	C260.760010,234.532257 260.923523,233.892548 261.087067,233.252823 
	C259.138977,232.442032 257.141693,230.847961 255.251907,230.966568 
	C249.469147,231.329483 243.727707,232.350433 237.126770,232.972412 
	C213.304276,236.356491 189.481796,239.740585 165.659302,243.124664 
	C167.417435,244.031097 169.075409,244.158875 170.708298,244.010559 
	C182.251251,242.962112 193.795868,241.923401 205.326202,240.747040 
	C213.228241,239.940826 221.108170,238.918015 229.899261,238.060181 
M161.522858,267.643524 
	C158.902939,267.947937 156.283005,268.252319 153.663086,268.556702 
	C153.626938,268.997101 153.590775,269.437500 153.554626,269.877899 
	C157.611618,270.949738 161.668610,272.021545 165.937042,273.742523 
	C166.399902,274.674011 166.862762,275.605530 167.360458,276.607117 
	C164.036514,276.911713 161.143143,277.176849 158.249786,277.441956 
	C158.299469,278.118134 158.349167,278.794281 158.398865,279.470428 
	C219.813721,280.273285 281.227264,280.325897 342.639221,279.481079 
	C342.672424,278.729065 342.705627,277.977051 342.738831,277.225067 
	C333.547882,276.747772 324.356903,276.270508 315.165924,275.793213 
	C315.013306,275.189362 314.860657,274.585480 314.708038,273.981628 
	C317.007263,273.037506 319.235657,271.573730 321.619293,271.248871 
	C328.196777,270.352325 334.859009,270.090607 341.448730,269.265961 
	C345.635498,268.741974 347.967743,266.432648 347.238983,261.742432 
	C346.629425,257.819427 346.386932,253.839355 345.889587,248.983078 
	C343.242767,250.431137 341.160919,251.570114 338.854218,252.832092 
	C339.956818,254.479279 340.764435,255.682358 341.568420,256.887878 
	C342.372162,258.092926 343.973846,259.451813 343.781433,260.470428 
	C343.509674,261.908875 342.153107,263.776154 340.827637,264.250031 
	C338.055969,265.240967 335.002991,265.884552 332.062744,265.895203 
	C307.753906,265.983185 283.444427,265.896667 259.135223,265.835571 
	C258.697998,265.834473 258.261627,265.495667 258.724854,265.687866 
	C257.748444,259.740906 256.868866,254.383545 255.935120,248.304916 
	C253.936234,246.208710 251.937332,244.112503 249.208740,241.982544 
	C240.431534,240.416565 237.699829,243.553879 234.058273,259.613831 
	C217.167465,260.329895 200.177200,261.050140 183.186920,261.770416 
	C183.193268,262.373444 183.199615,262.976501 183.205948,263.579529 
	C184.932373,263.661652 186.658676,263.811951 188.385239,263.815155 
	C202.367477,263.841095 216.350143,263.795715 230.331467,263.914856 
	C231.705292,263.926544 233.070953,264.896484 234.440414,265.421631 
	C233.140457,266.035431 231.863815,267.119293 230.536667,267.185120 
	C223.057709,267.556183 215.567764,267.780426 208.079391,267.867249 
	C198.975006,267.972839 189.868454,267.892365 180.763184,267.892365 
	C180.261230,263.585785 180.106369,259.600647 179.266113,255.765717 
	C178.353699,251.601578 175.332413,249.103165 171.051514,249.073166 
	C166.759598,249.043060 163.633636,251.538132 162.773438,255.674744 
	C162.010391,259.344116 162.228485,263.217529 161.522858,267.643524 
M219.269135,247.802444 
	C224.532166,246.311127 231.315857,249.261749 235.873108,241.813629 
	C217.986252,243.690689 201.257935,245.446167 184.529633,247.201645 
	C184.545898,247.415604 184.562149,247.629547 184.578415,247.843506 
	C195.824677,247.843506 207.070953,247.843506 219.269135,247.802444 
M197.976700,253.572449 
	C193.837662,253.971146 189.698639,254.369858 185.559601,254.768555 
	C198.710770,255.679047 211.751938,255.832047 224.782913,255.536118 
	C227.092087,255.483673 229.358795,253.561386 231.645111,252.502533 
	C231.429932,251.961884 231.214767,251.421219 230.999588,250.880554 
	C220.295761,251.726746 209.591919,252.572937 197.976700,253.572449 
M305.754761,254.015610 
	C307.599518,254.180908 309.444275,254.346191 312.264801,254.598923 
	C307.285461,249.622238 301.756256,250.303253 296.554565,249.501404 
	C296.084656,258.186798 297.733704,259.172943 309.376892,257.333801 
	C307.347565,256.385101 305.596130,255.566360 303.844727,254.747604 
	C304.240326,254.510605 304.635925,254.273605 305.754761,254.015610 
z"/>
<path fill="#07AFEF" opacity="1.000000" stroke="none" 
	d="
M174.797058,369.137146 
	C176.720886,370.874512 177.690308,372.068268 175.252518,374.047028 
	C167.371262,380.444397 155.160004,379.656219 148.653046,372.089447 
	C142.432251,364.855408 143.102127,353.774139 150.149246,347.339905 
	C157.746216,340.403625 169.880203,340.956635 177.167252,348.769043 
	C175.694122,350.493988 174.199738,352.243805 172.515747,354.215607 
	C171.475296,353.502991 170.577438,352.869965 169.661743,352.263885 
	C164.693085,348.974762 159.675461,349.382751 156.179535,353.352264 
	C153.061371,356.892883 152.907104,362.961731 155.839523,366.732422 
	C159.035858,370.842590 164.142334,371.681549 169.236847,368.618591 
	C171.257233,367.403870 172.883163,366.257263 174.797058,369.137146 
z"/>
<path fill="#0AB0F0" opacity="1.000000" stroke="none" 
	d="
M206.603424,356.586243 
	C209.859116,362.536011 209.880249,368.164734 205.845734,373.212372 
	C201.610718,378.510834 195.574188,379.036987 189.479248,377.723083 
	C184.224411,376.590240 180.765656,373.147583 179.492767,367.754303 
	C178.165146,362.129120 180.268860,356.308197 184.767303,353.239349 
	C189.800293,349.805847 198.157486,349.744354 203.150787,353.219116 
	C204.354706,354.056915 205.311249,355.250214 206.603424,356.586243 
M188.916397,368.422455 
	C190.972260,371.656067 193.985001,372.405731 197.038696,370.520325 
	C200.506119,368.379486 201.097473,364.547058 199.193222,361.350708 
	C198.121262,359.551361 195.037750,357.883728 192.948578,357.984497 
	C188.897141,358.179840 187.891739,361.638397 188.036896,365.279785 
	C188.069122,366.088348 188.368622,366.886261 188.916397,368.422455 
z"/>
<path fill="#05AFEF" opacity="1.000000" stroke="none" 
	d="
M258.933563,360.904236 
	C258.937927,362.708191 258.486786,364.284760 259.044922,365.314056 
	C260.089264,367.239838 261.718781,368.848297 263.104858,370.588776 
	C264.847565,369.124878 267.785919,367.881531 268.104431,366.154877 
	C268.990814,361.350098 268.789307,356.344604 269.028229,351.186890 
	C271.686188,351.186890 274.110748,351.186890 276.903503,351.186890 
	C276.903503,359.942139 276.903503,368.646179 276.903503,378.426849 
	C273.717072,377.797089 270.704498,377.201721 266.474304,376.365662 
	C264.004852,378.497772 259.573120,379.419556 255.016785,377.088470 
	C250.321075,374.686066 250.021225,370.062836 250.074753,365.427368 
	C250.128143,360.805084 250.086472,356.181732 250.086472,351.254028 
	C253.046066,351.254028 255.632584,351.254028 258.933563,351.254028 
	C258.933563,354.250031 258.933563,357.339935 258.933563,360.904236 
z"/>
<path fill="#05AFEF" opacity="1.000000" stroke="none" 
	d="
M309.131226,362.664612 
	C313.287903,362.144531 317.067474,361.791962 320.847290,361.439362 
	C320.260864,356.364044 317.807190,355.843231 308.300507,359.064178 
	C307.537811,357.417114 306.747070,355.709473 305.493988,353.003357 
	C310.237640,352.080811 314.362061,350.748657 318.533081,350.581848 
	C326.336029,350.269836 330.062378,354.261383 330.109283,362.127716 
	C330.138062,366.954926 330.076935,371.782745 330.032227,376.610077 
	C330.029480,376.907684 329.816345,377.203339 329.313812,378.496368 
	C326.859680,377.865723 324.270111,377.060822 321.620941,376.593689 
	C320.669342,376.425873 319.539215,376.980408 318.550629,377.361267 
	C313.503082,379.305969 308.262848,378.361267 305.747742,374.998413 
	C302.623718,370.821411 303.767578,366.192474 309.131226,362.664612 
M320.761383,366.367340 
	C319.455841,366.317780 318.057404,365.949829 316.867615,366.296997 
	C315.282043,366.759644 313.725037,367.618225 312.460968,368.672577 
	C312.150208,368.931732 312.785034,371.287933 313.397064,371.501923 
	C314.971252,372.052338 317.310089,372.679565 318.360870,371.918915 
	C319.839935,370.848236 320.432373,368.552704 320.761383,366.367340 
z"/>
<path fill="#07AFEF" opacity="1.000000" stroke="none" 
	d="
M345.898010,356.697815 
	C342.463593,357.693115 342.993011,359.055420 345.267242,360.139069 
	C347.201019,361.060516 349.374329,361.463959 351.380859,362.251495 
	C355.083679,363.704773 357.619659,366.053375 357.258057,370.469788 
	C356.900330,374.838593 354.018768,377.065430 350.224640,377.822357 
	C344.526978,378.958984 338.973999,378.367767 333.909729,374.475128 
	C334.746368,372.760681 335.528564,371.157776 336.146545,369.891418 
	C340.410614,370.819580 344.414154,371.691040 348.417664,372.562469 
	C348.653290,372.042450 348.888947,371.522430 349.124603,371.002411 
	C348.502747,370.217438 348.017761,369.224762 347.223541,368.701263 
	C346.281647,368.080444 345.080139,367.843811 343.979553,367.475128 
	C336.802979,365.071075 334.223236,362.078186 335.289185,357.374023 
	C336.381073,352.555328 341.457764,349.773224 348.170258,350.701111 
	C351.175049,351.116486 354.085205,352.216400 357.483276,353.124542 
	C356.248749,355.510223 355.428680,357.094971 354.595917,358.704254 
	C351.717224,357.999847 349.029358,357.342163 345.898010,356.697815 
z"/>
<path fill="#05AFEF" opacity="1.000000" stroke="none" 
	d="
M299.398621,371.046021 
	C300.546234,372.697418 301.274048,374.303436 302.075287,376.071381 
	C298.084290,378.895111 294.083618,378.999542 290.105347,377.321991 
	C286.059265,375.615906 285.682037,371.900421 285.796204,368.075012 
	C285.855652,366.082825 286.127441,364.015686 285.703796,362.116089 
	C285.363678,360.591095 283.891907,359.350555 283.340637,357.831940 
	C282.748352,356.200134 282.644226,354.391144 282.327087,352.659454 
	C287.535980,352.172943 285.098145,347.738647 286.159119,344.868439 
	C288.774780,344.868439 291.338837,344.868439 294.156372,344.868439 
	C294.321350,347.229584 294.469055,349.343842 294.637482,351.754669 
	C296.792328,351.934082 298.878235,352.107758 301.232422,352.303772 
	C301.232422,354.050140 301.232422,355.636932 301.232422,357.578705 
	C299.127045,357.796814 297.065552,358.010406 294.416779,358.284821 
	C294.416779,361.310669 294.487335,364.246185 294.398102,367.176880 
	C294.297363,370.485382 295.740631,371.775604 299.398621,371.046021 
z"/>
<path fill="#02AEEF" opacity="1.000000" stroke="none" 
	d="
M221.736206,377.578430 
	C219.067291,377.878387 216.773102,377.878387 214.146439,377.878387 
	C214.146439,365.668304 214.146439,353.646667 214.146439,341.210754 
	C216.565018,341.210754 219.093185,341.210754 222.110901,341.210754 
	C222.110901,353.217834 222.110901,365.248169 221.736206,377.578430 
z"/>
<path fill="#02AEEF" opacity="1.000000" stroke="none" 
	d="
M238.331619,368.323456 
	C238.331726,371.594604 238.331726,374.410400 238.331726,377.613525 
	C235.581924,377.613525 233.041199,377.613525 230.149857,377.613525 
	C230.149857,369.000824 230.149857,360.305908 230.149857,350.505249 
	C233.381287,351.162994 236.393417,351.776062 239.405548,352.389160 
	C239.272629,352.751099 239.139725,353.113068 239.006805,353.475037 
	C241.465042,352.444946 243.923264,351.414856 246.903946,350.165833 
	C246.903946,353.230164 246.903946,355.342499 246.903946,357.449982 
	C238.833496,360.297516 238.526947,360.671112 238.331619,368.323456 
z"/>
<path fill="#f0f9ff" opacity="1.000000" stroke="none" 
	d="
M200.517700,220.896942 
	C201.598267,232.468811 201.596390,232.455185 190.660614,233.965149 
	C186.402344,234.553116 182.154694,235.217911 177.143402,235.960083 
	C176.593658,232.408203 176.035019,228.799011 175.476395,225.189819 
	C174.989563,225.182938 174.502716,225.176071 174.015869,225.169189 
	C174.015869,227.900009 173.898773,230.637344 174.050262,233.359741 
	C174.189224,235.856842 173.275238,236.872299 170.715179,237.143509 
	C166.424408,237.598068 162.186523,238.531052 157.910629,239.154556 
	C155.192795,239.550858 154.008560,240.729492 153.956711,243.721512 
	C153.885742,247.815796 153.103775,251.897766 151.457718,255.968002 
	C151.457718,244.250076 151.291580,232.528671 151.535995,220.815842 
	C151.639999,215.832275 155.332352,213.352493 159.671661,211.833054 
	C184.218979,203.237671 208.691315,194.418259 233.349274,186.152771 
	C246.342987,181.797180 259.662231,178.412750 273.680054,174.344421 
	C276.597473,182.398300 279.283051,189.812195 281.749390,197.718872 
	C281.262085,198.410812 281.089966,198.672958 281.007507,199.000061 
	C281.001221,199.002029 280.994202,199.013275 280.772522,199.111618 
	C280.273987,199.405304 280.094055,199.667252 280.006134,199.998520 
	C280.001221,200.001221 279.995880,200.011078 279.774109,200.111023 
	C279.275574,200.407486 279.094177,200.669922 279.004517,200.999451 
	C279.000885,201.000610 278.998383,201.008087 278.772217,201.114532 
	C278.365967,201.495316 278.185913,201.769684 277.884033,202.302521 
	C277.188629,203.042191 276.615021,203.523376 275.811188,204.103119 
	C275.291565,204.397278 275.099976,204.663300 275.003113,205.000183 
	C275.000000,205.000610 274.999817,205.006226 274.777740,205.108032 
	C274.278046,205.407074 274.095184,205.670166 274.003510,205.999863 
	C274.000000,206.000610 274.001221,206.007797 273.624146,206.002365 
	C272.492371,205.997955 271.737640,205.998978 270.719574,205.878677 
	C269.970703,205.174561 269.485138,204.591751 268.893860,203.786148 
	C268.587738,203.285721 268.323395,203.098358 267.777283,202.892853 
	C267.287720,202.585724 267.100830,202.325928 266.893127,201.783783 
	C266.589264,201.285843 266.327179,201.098557 266.000610,201.000305 
	C266.000000,201.000000 265.999084,200.999115 265.911469,200.789886 
	C265.658020,200.314682 265.430542,200.121185 265.141418,200.000183 
	C265.141418,200.000183 264.978210,199.582703 264.963959,198.908844 
	C264.718414,194.883530 264.487152,191.532074 264.255890,188.180603 
	C263.736908,188.227585 263.217926,188.274567 262.698944,188.321548 
	C263.090668,191.869003 263.482422,195.416458 263.874176,198.963913 
	C263.781921,205.786026 263.793427,212.612503 263.508057,219.426529 
	C263.452423,220.754532 262.400055,223.048615 261.542114,223.181290 
	C251.620407,224.715714 241.647614,225.919693 231.423187,227.245819 
	C230.804123,219.305756 230.232300,211.971619 229.660477,204.637482 
	C229.415512,204.645508 229.170532,204.653534 228.925568,204.661560 
	C228.925568,212.257370 228.925568,219.853165 228.925568,227.722183 
	C220.367813,229.072495 212.215317,230.358871 203.392105,231.751068 
	C202.914642,226.382263 202.452179,221.182190 201.988617,215.080109 
	C201.993042,210.830032 201.998566,207.481979 202.305161,203.913467 
	C208.234207,201.669403 213.862198,199.645798 219.490189,197.622208 
	C217.814728,197.006058 216.312515,197.040863 214.935333,197.473557 
	C197.369766,202.992554 179.827438,208.585449 162.266449,214.119034 
	C157.498581,215.621445 155.955566,219.269852 155.120209,224.083923 
	C158.054169,221.825623 160.311829,219.328751 163.123749,218.082504 
	C168.869171,215.536148 174.912704,213.662399 180.932922,211.768723 
	C181.682587,211.713272 182.332809,211.400726 183.219284,210.819580 
	C185.291611,209.991226 187.127686,209.431458 189.100525,209.183624 
	C192.997452,213.296005 196.757568,217.096481 200.517700,220.896942 
M174.757629,220.572968 
	C174.403580,220.588638 174.049545,220.604309 173.695496,220.619995 
	C174.119568,220.757294 174.543655,220.894592 174.985550,221.624298 
	C175.079697,222.145401 175.173843,222.666489 175.268005,223.187592 
	C175.479736,223.118744 175.691467,223.049896 175.903214,222.981064 
	C175.608734,222.310959 175.314255,221.640854 174.757629,220.572968 
z"/>
<path fill="#f0f9ff" opacity="1.000000" stroke="none" 
	d="
M255.989258,249.026199 
	C256.868866,254.383545 257.748444,259.740906 258.724854,265.687866 
	C258.261627,265.495667 258.697998,265.834473 259.135223,265.835571 
	C283.444427,265.896667 307.753906,265.983185 332.062744,265.895203 
	C335.002991,265.884552 338.055969,265.240967 340.827637,264.250031 
	C342.153107,263.776154 343.509674,261.908875 343.781433,260.470428 
	C343.973846,259.451813 342.372162,258.092926 341.568420,256.887878 
	C340.764435,255.682358 339.956818,254.479279 338.854218,252.832092 
	C341.160919,251.570114 343.242767,250.431137 345.889587,248.983078 
	C346.386932,253.839355 346.629425,257.819427 347.238983,261.742432 
	C347.967743,266.432648 345.635498,268.741974 341.448730,269.265961 
	C334.859009,270.090607 328.196777,270.352325 321.619293,271.248871 
	C319.235657,271.573730 317.007263,273.037506 314.708038,273.981628 
	C314.860657,274.585480 315.013306,275.189362 315.165924,275.793213 
	C324.356903,276.270508 333.547882,276.747772 342.738831,277.225067 
	C342.705627,277.977051 342.672424,278.729065 342.639221,279.481079 
	C281.227264,280.325897 219.813721,280.273285 158.398865,279.470428 
	C158.349167,278.794281 158.299469,278.118134 158.249786,277.441956 
	C161.143143,277.176849 164.036514,276.911713 167.360458,276.607117 
	C166.862762,275.605530 166.399902,274.674011 166.132446,273.378967 
	C167.262314,271.657990 168.196762,270.300537 168.698044,269.572327 
	C166.028519,268.545380 164.020996,267.773132 162.013474,267.000854 
	C162.228485,263.217529 162.010391,259.344116 162.773438,255.674744 
	C163.633636,251.538132 166.759598,249.043060 171.051514,249.073166 
	C175.332413,249.103165 178.353699,251.601578 179.266113,255.765717 
	C180.106369,259.600647 180.261230,263.585785 180.763184,267.892365 
	C189.868454,267.892365 198.975006,267.972839 208.079391,267.867249 
	C215.567764,267.780426 223.057709,267.556183 230.536667,267.185120 
	C231.863815,267.119293 233.140457,266.035431 234.440414,265.421631 
	C233.070953,264.896484 231.705292,263.926544 230.331467,263.914856 
	C216.350143,263.795715 202.367477,263.841095 188.385239,263.815155 
	C186.658676,263.811951 184.932373,263.661652 183.205948,263.579529 
	C183.199615,262.976501 183.193268,262.373444 183.186920,261.770416 
	C200.177200,261.050140 217.167465,260.329895 234.058273,259.613831 
	C237.699829,243.553879 240.431534,240.416565 249.646988,242.254852 
	C250.061707,242.702759 250.038162,242.878357 249.606308,243.058212 
	C246.281982,243.298294 243.311920,243.453491 242.809021,246.137085 
	C246.560577,247.400009 249.871475,248.568054 253.229065,249.581375 
	C253.679321,249.717255 254.365341,249.071915 255.203278,248.850830 
	C255.639328,248.950943 255.814285,248.988571 255.989258,249.026199 
M241.779068,249.735626 
	C241.948181,249.136948 242.117279,248.538254 242.286392,247.939575 
	C242.068726,247.859482 241.851044,247.779388 241.633377,247.699295 
	C241.299667,248.339645 240.965973,248.980011 240.264908,249.973160 
	C240.298218,250.214630 240.331528,250.456100 240.364838,250.697571 
	C240.613632,250.504578 240.862411,250.311569 241.779068,249.735626 
M167.217712,255.304367 
	C170.021057,255.304367 172.824417,255.304367 176.658295,255.304367 
	C174.745361,253.759460 173.062103,251.327240 171.338165,251.298050 
	C169.472763,251.266479 167.569397,253.477417 165.225159,255.128601 
	C165.145798,255.670563 165.066422,256.212524 164.987061,256.754486 
	C165.259842,256.948364 165.532623,257.142242 165.805405,257.336090 
	C166.071594,256.790161 166.337784,256.244232 167.217712,255.304367 
M276.515808,276.014587 
	C281.780670,276.014587 287.045502,276.014587 292.310364,276.014587 
	C292.521942,275.479736 292.733551,274.944855 292.945129,274.410004 
	C290.789673,273.390533 288.699860,271.705475 286.465576,271.485016 
	C281.207184,270.966217 275.859039,271.397247 270.587402,270.959534 
	C266.786896,270.644012 264.699799,272.010284 263.648560,276.013275 
	C267.712189,276.013275 271.619690,276.013275 276.515808,276.014587 
M239.938278,274.352142 
	C235.740021,270.175720 218.961624,271.188019 216.688431,275.997162 
	C222.242874,275.997162 227.684067,276.094025 233.119095,275.952972 
	C235.538269,275.890198 237.945007,275.348175 239.938278,274.352142 
M187.829727,276.148407 
	C192.379776,276.148407 196.929840,276.148407 202.443161,276.148407 
	C197.939774,269.656158 192.220078,273.131989 187.509964,272.560760 
	C185.924484,272.368500 184.114059,274.031281 182.406433,274.846222 
	C182.602295,275.281860 182.798141,275.717499 182.993988,276.153137 
	C184.307770,276.153137 185.621552,276.153137 187.829727,276.148407 
M249.712006,272.204681 
	C251.200958,270.881714 252.689911,269.558777 254.044296,268.355377 
	C250.158661,268.355377 246.664749,268.355377 243.170822,268.355377 
	C242.989960,268.799103 242.809082,269.242828 242.628220,269.686584 
	C244.769501,270.604523 246.910782,271.522461 249.712006,272.204681 
M176.526184,257.159943 
	C176.498917,257.651947 176.471664,258.143951 176.444412,258.635956 
	C176.601913,258.301910 176.759415,257.967896 176.526184,257.159943 
z"/>
<path fill="#f0f9ff" opacity="1.000000" stroke="none" 
	d="
M303.059387,195.007217 
	C302.781708,194.593414 302.349274,194.213760 302.249237,193.760712 
	C300.340668,185.117493 294.277557,182.063187 286.189972,182.075989 
	C282.223267,182.082275 280.936157,180.111694 280.957123,175.457916 
	C288.388794,176.426071 295.667267,177.245834 302.899567,178.364105 
	C307.316345,179.047028 311.675415,180.132462 316.032257,181.156891 
	C317.461792,181.493011 319.297607,181.809723 320.100555,182.813141 
	C324.058289,187.759171 329.792694,188.039215 335.269165,189.198563 
	C341.031616,190.418457 349.653198,202.063141 348.877899,207.676544 
	C348.758301,208.542404 347.081787,209.917175 346.291077,209.811859 
	C344.762817,209.608261 342.677490,208.897522 342.017303,207.724701 
	C339.828430,203.836395 338.158966,199.654434 336.312714,195.574951 
	C334.878540,192.406128 332.647400,191.045395 329.329376,192.197128 
	C332.773193,200.450195 336.190338,208.639374 339.832642,217.368149 
	C335.879700,218.163406 332.738495,218.795349 329.341766,219.478699 
	C332.417847,222.867523 339.373688,216.253082 341.131256,224.310837 
	C334.137054,225.784470 327.564697,227.169220 320.992340,228.553970 
	C320.965027,228.882935 320.937744,229.211899 320.910431,229.540863 
	C325.302185,229.287003 329.693939,229.033142 334.427063,229.119370 
	C333.847870,230.589386 332.927307,231.719299 332.006775,232.849213 
	C328.497314,233.722870 324.987915,234.596558 321.478485,235.470245 
	C321.474854,235.938583 321.471252,236.406937 321.467621,236.875290 
	C328.830963,236.486633 336.194305,236.097977 343.557678,235.709305 
	C343.623108,236.191528 343.688568,236.673737 343.754028,237.155945 
	C334.236542,240.954224 324.017639,241.683975 313.187622,243.047379 
	C311.143463,242.718887 309.492462,242.786530 308.630188,241.994980 
	C304.900391,238.571091 301.247009,235.031830 297.903503,231.237015 
	C296.764160,229.943878 296.615387,227.777969 296.151520,225.952454 
	C296.189087,225.924744 296.089142,225.955444 295.712341,226.105667 
	C294.334076,226.155838 293.232697,226.086487 292.131348,226.017151 
	C290.135742,216.119263 288.187927,206.211380 286.119812,196.328674 
	C285.351959,192.659470 284.302032,189.049286 283.337067,185.239609 
	C288.863983,184.914490 292.633820,186.637726 294.103333,192.301865 
	C295.100006,196.143707 297.074677,199.773270 297.740448,203.647522 
	C298.370819,207.315720 300.573334,207.738647 302.980011,206.813385 
	C304.045227,206.403854 304.610779,203.841934 304.772034,202.195312 
	C304.908508,200.801697 304.135529,199.319031 303.940979,197.375809 
	C304.035187,196.697083 303.953461,196.518295 303.871704,196.339508 
	C303.739349,196.426804 303.606995,196.514099 303.474640,196.601379 
	C303.474640,196.601395 303.456329,196.437943 303.583008,196.116364 
	C303.492889,195.532257 303.276154,195.269730 303.059387,195.007217 
M299.551849,222.203751 
	C299.283081,222.405182 299.094818,222.664978 298.708496,223.101349 
	C298.811401,223.071915 298.914307,223.042480 299.450928,222.791382 
	C299.722870,222.592987 299.912689,222.334335 300.449768,221.792297 
	C300.717743,221.593536 300.906677,221.336624 301.449432,220.798645 
	C301.717834,220.597626 301.906952,220.338684 302.449768,219.798035 
	C302.718414,219.596313 302.906403,219.336288 303.447784,218.794586 
	C303.717163,218.592239 303.903870,218.330826 304.444153,217.791229 
	C304.715363,217.590759 304.903015,217.330124 305.443604,216.791122 
	C305.715088,216.591339 305.903351,216.331299 306.444336,215.793152 
	C306.715393,215.594193 306.904999,215.335510 307.447357,214.796188 
	C307.716827,214.595810 307.905884,214.336716 308.448242,213.797043 
	C308.717346,213.596298 308.906250,213.337097 309.451111,212.796906 
	C309.722961,212.595947 309.912201,212.335068 310.449127,211.791214 
	C310.717590,211.591827 310.905579,211.333801 311.448975,210.794449 
	C311.720306,210.592468 311.907501,210.330383 312.286255,209.893600 
	C312.188110,209.925568 312.089966,209.957535 311.553894,210.207794 
	C311.280701,210.406891 311.090546,210.666779 310.552734,211.209534 
	C310.284058,211.408371 310.095123,211.665756 309.550171,212.204376 
	C309.278503,212.405121 309.088867,212.665604 308.549072,213.209579 
	C308.278137,213.408661 308.089020,213.667526 307.549530,214.209946 
	C307.278717,214.409317 307.090027,214.668488 306.550934,215.211105 
	C306.280121,215.411209 306.092834,215.671432 305.554047,216.212097 
	C305.281982,216.411560 305.094208,216.671860 304.554779,217.212051 
	C304.282196,217.411118 304.093842,217.671173 303.553650,218.210785 
	C303.280823,218.408737 303.090485,218.667404 302.549286,219.208908 
	C302.277679,219.407318 302.087524,219.665680 301.547455,220.208664 
	C301.276886,220.407730 301.087463,220.666260 300.550415,221.208572 
	C300.282837,221.407837 300.094330,221.665039 299.551849,222.203751 
z"/>
<path fill="#f0f9ff" opacity="1.000000" stroke="none" 
	d="
M296.014008,226.010849 
	C296.615387,227.777969 296.764160,229.943878 297.903503,231.237015 
	C301.247009,235.031830 304.900391,238.571091 308.630188,241.994980 
	C309.492462,242.786530 311.143463,242.718887 312.758026,243.037720 
	C314.384369,243.426819 315.695435,244.199646 316.982239,244.161224 
	C324.620087,243.933105 332.251770,243.504440 339.886871,243.174484 
	C341.506836,243.104492 343.132385,243.164276 344.755371,243.164276 
	C344.927460,243.633713 345.099548,244.103149 345.271606,244.572601 
	C343.983429,245.211304 342.715118,246.358078 341.403931,246.409439 
	C329.466705,246.876984 317.523224,247.297974 305.578674,247.404175 
	C301.640289,247.439194 297.693329,246.516693 293.463745,245.996780 
	C293.463745,250.327896 293.463745,254.423080 293.463745,258.110901 
	C277.425446,225.116104 277.425446,225.116104 270.595947,223.456894 
	C270.595947,235.446625 270.595947,247.464615 270.595947,259.536255 
	C274.996979,260.540466 278.615479,261.366089 282.234009,262.191742 
	C282.197784,262.373138 282.161560,262.554504 282.125366,262.735901 
	C277.607330,262.735901 273.089325,262.735901 268.143188,262.735901 
	C267.097565,242.306976 266.063080,222.095627 265.298553,201.442841 
	C265.568512,201.001389 265.999084,200.999115 265.999084,200.999115 
	C265.999084,200.999115 266.000000,201.000000 266.108459,201.219696 
	C266.416290,201.712555 266.676941,201.901123 266.998779,202.005096 
	C267.100830,202.325928 267.287720,202.585724 267.887421,203.112167 
	C268.416229,203.713013 268.677643,203.902725 268.999603,204.008957 
	C269.485138,204.591751 269.970703,205.174561 270.855347,206.158295 
	C272.170471,207.376770 273.086487,208.194275 274.148865,209.309555 
	C278.190735,213.403381 282.086243,217.199432 286.128723,221.290314 
	C287.302338,222.353516 288.328949,223.121887 289.355591,223.890259 
	C290.061615,226.328125 290.767609,228.765991 291.793304,232.307709 
	C291.909943,229.759460 291.977295,228.287689 292.087982,226.416534 
	C293.232697,226.086487 294.334076,226.155838 295.717712,226.112595 
	C296.000000,226.000000 296.014008,226.010849 296.014008,226.010849 
z"/>
<path fill="#f0f9ff" opacity="1.000000" stroke="none" 
	d="
M228.997986,237.992004 
	C221.108170,238.918015 213.228241,239.940826 205.326202,240.747040 
	C193.795868,241.923401 182.251251,242.962112 170.708298,244.010559 
	C169.075409,244.158875 167.417435,244.031097 165.659302,243.124664 
	C189.481796,239.740585 213.304276,236.356491 237.380371,233.340607 
	C234.758331,234.802841 231.882706,235.896866 228.950378,236.852921 
	C228.806335,236.666443 228.718964,236.617950 228.631592,236.569458 
	C228.751343,236.715363 228.871078,236.861267 228.993164,237.253357 
	C228.995529,237.499557 228.997986,237.992004 228.997986,237.992004 
z"/>
<path fill="#f0f9ff" opacity="1.000000" stroke="none" 
	d="
M218.793182,247.822968 
	C207.070953,247.843506 195.824677,247.843506 184.578415,247.843506 
	C184.562149,247.629547 184.545898,247.415604 184.529633,247.201645 
	C201.257935,245.446167 217.986252,243.690689 235.873108,241.813629 
	C231.315857,249.261749 224.532166,246.311127 218.793182,247.822968 
z"/>
<path fill="#f0f9ff" opacity="1.000000" stroke="none" 
	d="
M285.981781,220.995499 
	C282.086243,217.199432 278.190735,213.403381 274.150452,208.933716 
	C274.004242,207.509338 274.002716,206.758560 274.001221,206.007797 
	C274.001221,206.007797 274.000000,206.000610 274.224304,205.896545 
	C274.724274,205.594849 274.908020,205.332764 274.999817,205.006226 
	C274.999817,205.006226 275.000000,205.000610 275.227051,204.894714 
	C275.729797,204.587265 275.925568,204.325851 276.041412,204.004562 
	C276.615021,203.523376 277.188629,203.042191 278.102264,202.185028 
	C278.718811,201.605362 278.904175,201.338364 278.998383,201.008087 
	C278.998383,201.008087 279.000885,201.000610 279.224792,200.897522 
	C279.724304,200.598419 279.906708,200.337296 279.995880,200.011078 
	C279.995880,200.011078 280.001221,200.001221 280.226257,199.898239 
	C280.726715,199.600189 280.907684,199.339523 280.994202,199.013275 
	C280.994202,199.013275 281.001221,199.002029 281.282715,199.009674 
	C281.931549,199.021378 282.298889,199.025436 282.666199,199.029480 
	C284.685242,206.096191 286.704254,213.162903 288.380188,220.604263 
	C287.351990,220.984436 286.666901,220.989960 285.981781,220.995499 
z"/>
<path fill="#f0f9ff" opacity="1.000000" stroke="none" 
	d="
M198.432388,253.495789 
	C209.591919,252.572937 220.295761,251.726746 230.999588,250.880554 
	C231.214767,251.421219 231.429932,251.961884 231.645111,252.502533 
	C229.358795,253.561386 227.092087,255.483673 224.782913,255.536118 
	C211.751938,255.832047 198.710770,255.679047 185.559601,254.768555 
	C189.698639,254.369858 193.837662,253.971146 198.432388,253.495789 
z"/>
<path fill="#f0f9ff" opacity="1.000000" stroke="none" 
	d="
M229.448624,238.026093 
	C228.997986,237.992004 228.995529,237.499557 228.997772,237.249786 
	C229.000000,237.000000 229.007065,236.990891 229.007065,236.990906 
	C231.882706,235.896866 234.758331,234.802841 237.802063,233.412140 
	C243.727707,232.350433 249.469147,231.329483 255.251907,230.966568 
	C257.141693,230.847961 259.138977,232.442032 261.087067,233.252823 
	C260.923523,233.892548 260.760010,234.532257 260.596466,235.171982 
	C250.364059,236.134705 240.131653,237.097443 229.448624,238.026093 
z"/>
<path fill="#f0f9ff" opacity="1.000000" stroke="none" 
	d="
M200.631714,220.509827 
	C196.757568,217.096481 192.997452,213.296005 189.319122,208.897614 
	C193.601990,206.911118 197.803040,205.522522 202.004089,204.133942 
	C201.998566,207.481979 201.993042,210.830032 201.976624,214.640213 
	C201.559052,216.775803 201.152374,218.449265 200.631714,220.509827 
z"/>
<path fill="#f0f9ff" opacity="1.000000" stroke="none" 
	d="
M305.393127,254.026108 
	C304.635925,254.273605 304.240326,254.510605 303.844727,254.747604 
	C305.596130,255.566360 307.347565,256.385101 309.376892,257.333801 
	C297.733704,259.172943 296.084656,258.186798 296.554565,249.501404 
	C301.756256,250.303253 307.285461,249.622238 312.264801,254.598923 
	C309.444275,254.346191 307.599518,254.180908 305.393127,254.026108 
z"/>
<path fill="#E2F5FC" opacity="1.000000" stroke="none" 
	d="
M161.768158,267.322205 
	C164.020996,267.773132 166.028519,268.545380 168.698044,269.572327 
	C168.196762,270.300537 167.262314,271.657990 166.026733,273.054413 
	C161.668610,272.021545 157.611618,270.949738 153.554626,269.877899 
	C153.590775,269.437500 153.626938,268.997101 153.663086,268.556702 
	C156.283005,268.252319 158.902939,267.947937 161.768158,267.322205 
z"/>
<path fill="#E2F5FC" opacity="1.000000" stroke="none" 
	d="
M332.409058,232.899628 
	C332.927307,231.719299 333.847870,230.589386 334.879578,229.163635 
	C337.365265,228.938980 339.739807,229.010132 342.114349,229.081268 
	C340.115082,230.157623 338.159271,231.329300 336.097748,232.269089 
	C335.105103,232.721573 333.913086,232.736786 332.409058,232.899628 
z"/>
<path fill="#A0E0F8" opacity="1.000000" stroke="none" 
	d="
M264.120239,199.026581 
	C263.482422,195.416458 263.090668,191.869003 262.698944,188.321548 
	C263.217926,188.274567 263.736908,188.227585 264.255890,188.180603 
	C264.487152,191.532074 264.718414,194.883530 264.910217,198.691254 
	C264.702606,199.128098 264.534454,199.108673 264.120239,199.026581 
z"/>
<path fill="#16B4F0" opacity="1.000000" stroke="none" 
	d="
M255.962189,248.665558 
	C255.814285,248.988571 255.639328,248.950943 255.035110,248.576508 
	C253.075439,246.511124 251.545029,244.782547 250.014603,243.053955 
	C250.038162,242.878357 250.061707,242.702759 250.011841,242.271729 
	C251.937332,244.112503 253.936234,246.208710 255.962189,248.665558 
z"/>
<path fill="#ECF3F5" opacity="1.000000" stroke="none" 
	d="
M286.128723,221.290314 
	C286.666901,220.989960 287.351990,220.984436 288.379395,220.978577 
	C288.893463,221.702927 289.065216,222.427582 289.296295,223.521240 
	C288.328949,223.121887 287.302338,222.353516 286.128723,221.290314 
z"/>
<path fill="#ECF3F5" opacity="1.000000" stroke="none" 
	d="
M282.650085,198.804169 
	C282.298889,199.025436 281.931549,199.021378 281.289001,199.007721 
	C281.089966,198.672958 281.262085,198.410812 281.745209,198.106750 
	C282.261383,198.104843 282.485931,198.297180 282.650085,198.804169 
z"/>
<path fill="#F4FAFC" opacity="1.000000" stroke="none" 
	d="
M303.039093,195.262817 
	C303.276154,195.269730 303.492889,195.532257 303.634277,196.052063 
	C303.378876,196.045700 303.198853,195.782059 303.039093,195.262817 
z"/>
<path fill="#F4FAFC" opacity="1.000000" stroke="none" 
	d="
M303.489929,196.726303 
	C303.606995,196.514099 303.739349,196.426804 303.871704,196.339508 
	C303.953461,196.518295 304.035187,196.697083 303.894165,196.958069 
	C303.671387,197.040268 303.505188,196.851227 303.489929,196.726303 
z"/>
<path fill="#ECF3F5" opacity="1.000000" stroke="none" 
	d="
M265.911469,200.789886 
	C265.999084,200.999115 265.568512,201.001389 265.353241,201.004791 
	C265.099670,200.840103 265.061340,200.671997 265.082214,200.252029 
	C265.430542,200.121185 265.658020,200.314682 265.911469,200.789886 
z"/>
<path fill="#F8FCFD" opacity="1.000000" stroke="none" 
	d="
M188.730713,368.055756 
	C188.368622,366.886261 188.069122,366.088348 188.036896,365.279785 
	C187.891739,361.638397 188.897141,358.179840 192.948578,357.984497 
	C195.037750,357.883728 198.121262,359.551361 199.193222,361.350708 
	C201.097473,364.547058 200.506119,368.379486 197.038696,370.520325 
	C193.985001,372.405731 190.972260,371.656067 188.730713,368.055756 
z"/>
<path fill="#E2F5FC" opacity="1.000000" stroke="none" 
	d="
M321.082642,366.574158 
	C320.432373,368.552704 319.839935,370.848236 318.360870,371.918915 
	C317.310089,372.679565 314.971252,372.052338 313.397064,371.501923 
	C312.785034,371.287933 312.150208,368.931732 312.460968,368.672577 
	C313.725037,367.618225 315.282043,366.759644 316.867615,366.296997 
	C318.057404,365.949829 319.455841,366.317780 321.082642,366.574158 
z"/>
<path fill="#16B4F0" opacity="1.000000" stroke="none" 
	d="
M202.305145,203.913483 
	C197.803040,205.522522 193.601990,206.911118 189.182343,208.585693 
	C187.127686,209.431458 185.291611,209.991226 182.938263,210.814667 
	C181.891800,211.222763 181.362625,211.367203 180.833450,211.511627 
	C174.912704,213.662399 168.869171,215.536148 163.123749,218.082504 
	C160.311829,219.328751 158.054169,221.825623 155.120209,224.083923 
	C155.955566,219.269852 157.498581,215.621445 162.266449,214.119034 
	C179.827438,208.585449 197.369766,202.992554 214.935333,197.473557 
	C216.312515,197.040863 217.814728,197.006058 219.490189,197.622208 
	C213.862198,199.645798 208.234207,201.669403 202.305145,203.913483 
z"/>
<path fill="#ECF3F5" opacity="1.000000" stroke="none" 
	d="
M273.624146,206.002365 
	C274.002716,206.758560 274.004242,207.509338 274.004120,208.635956 
	C273.086487,208.194275 272.170471,207.376770 271.118683,206.279633 
	C271.737640,205.998978 272.492371,205.997955 273.624146,206.002365 
z"/>
<path fill="#F8FCFD" opacity="1.000000" stroke="none" 
	d="
M180.932922,211.768723 
	C181.362625,211.367203 181.891800,211.222763 182.701996,211.083252 
	C182.332809,211.400726 181.682587,211.713272 180.932922,211.768723 
z"/>
<path fill="#F8FCFD" opacity="1.000000" stroke="none" 
	d="
M175.019791,220.970749 
	C175.314255,221.640854 175.608734,222.310959 175.903214,222.981064 
	C175.691467,223.049896 175.479736,223.118744 175.268005,223.187592 
	C175.173843,222.666489 175.079697,222.145401 174.990784,221.313690 
	C174.996002,221.003082 175.019791,220.970749 175.019791,220.970749 
z"/>
<path fill="#F8FCFD" opacity="1.000000" stroke="none" 
	d="
M174.981873,221.017487 
	C174.543655,220.894592 174.119568,220.757294 173.695496,220.619995 
	C174.049545,220.604309 174.403580,220.588638 174.888702,220.771851 
	C175.019791,220.970749 174.996002,221.003082 174.981873,221.017487 
z"/>
<path fill="#ECF3F5" opacity="1.000000" stroke="none" 
	d="
M280.772522,199.111618 
	C280.907684,199.339523 280.726715,199.600189 280.231140,199.895538 
	C280.094055,199.667252 280.273987,199.405304 280.772522,199.111618 
z"/>
<path fill="#ECF3F5" opacity="1.000000" stroke="none" 
	d="
M274.777740,205.108032 
	C274.908020,205.332764 274.724274,205.594849 274.227783,205.895798 
	C274.095184,205.670166 274.278046,205.407074 274.777740,205.108032 
z"/>
<path fill="#ECF3F5" opacity="1.000000" stroke="none" 
	d="
M275.811188,204.103119 
	C275.925568,204.325851 275.729797,204.587265 275.230164,204.894287 
	C275.099976,204.663300 275.291565,204.397278 275.811188,204.103119 
z"/>
<path fill="#ECF3F5" opacity="1.000000" stroke="none" 
	d="
M268.893860,203.786148 
	C268.677643,203.902725 268.416229,203.713013 268.105255,203.220520 
	C268.323395,203.098358 268.587738,203.285721 268.893860,203.786148 
z"/>
<path fill="#ECF3F5" opacity="1.000000" stroke="none" 
	d="
M278.772217,201.114532 
	C278.904175,201.338364 278.718811,201.605362 278.224060,201.926544 
	C278.185913,201.769684 278.365967,201.495316 278.772217,201.114532 
z"/>
<path fill="#ECF3F5" opacity="1.000000" stroke="none" 
	d="
M266.893127,201.783783 
	C266.676941,201.901123 266.416290,201.712555 266.109070,201.220001 
	C266.327179,201.098557 266.589264,201.285843 266.893127,201.783783 
z"/>
<path fill="#ECF3F5" opacity="1.000000" stroke="none" 
	d="
M279.774109,200.111023 
	C279.906708,200.337296 279.724304,200.598419 279.228455,200.896362 
	C279.094177,200.669922 279.275574,200.407486 279.774109,200.111023 
z"/>
<path fill="#0AB0F0" opacity="1.000000" stroke="none" 
	d="
M276.021515,276.013916 
	C271.619690,276.013275 267.712189,276.013275 263.648560,276.013275 
	C264.699799,272.010284 266.786896,270.644012 270.587402,270.959534 
	C275.859039,271.397247 281.207184,270.966217 286.465576,271.485016 
	C288.699860,271.705475 290.789673,273.390533 292.945129,274.410004 
	C292.733551,274.944855 292.521942,275.479736 292.310364,276.014587 
	C287.045502,276.014587 281.780670,276.014587 276.021515,276.013916 
z"/>
<path fill="#07AFEF" opacity="1.000000" stroke="none" 
	d="
M240.147827,274.687927 
	C237.945007,275.348175 235.538269,275.890198 233.119095,275.952972 
	C227.684067,276.094025 222.242874,275.997162 216.688431,275.997162 
	C218.961624,271.188019 235.740021,270.175720 240.147827,274.687927 
z"/>
<path fill="#16B4F0" opacity="1.000000" stroke="none" 
	d="
M187.382538,276.150757 
	C185.621552,276.153137 184.307770,276.153137 182.993988,276.153137 
	C182.798141,275.717499 182.602295,275.281860 182.406433,274.846222 
	C184.114059,274.031281 185.924484,272.368500 187.509964,272.560760 
	C192.220078,273.131989 197.939774,269.656158 202.443161,276.148407 
	C196.929840,276.148407 192.379776,276.148407 187.382538,276.150757 
z"/>
<path fill="#02AEEF" opacity="1.000000" stroke="none" 
	d="
M249.606308,243.058212 
	C251.545029,244.782547 253.075439,246.511124 254.774017,248.514038 
	C254.365341,249.071915 253.679321,249.717255 253.229065,249.581375 
	C249.871475,248.568054 246.560577,247.400009 242.809021,246.137085 
	C243.311920,243.453491 246.281982,243.298294 249.606308,243.058212 
z"/>
<path fill="#16B4F0" opacity="1.000000" stroke="none" 
	d="
M249.382019,272.322540 
	C246.910782,271.522461 244.769501,270.604523 242.628220,269.686584 
	C242.809082,269.242828 242.989960,268.799103 243.170822,268.355377 
	C246.664749,268.355377 250.158661,268.355377 254.044296,268.355377 
	C252.689911,269.558777 251.200958,270.881714 249.382019,272.322540 
z"/>
<path fill="#16B4F0" opacity="1.000000" stroke="none" 
	d="
M165.682571,254.710266 
	C167.569397,253.477417 169.472763,251.266479 171.338165,251.298050 
	C173.062103,251.327240 174.745361,253.759460 176.658295,255.304367 
	C172.824417,255.304367 170.021057,255.304367 166.692078,255.243546 
	C166.005157,255.025223 165.843872,254.867737 165.682571,254.710266 
z"/>
<path fill="#16B4F0" opacity="1.000000" stroke="none" 
	d="
M176.721558,257.396912 
	C176.759415,257.967896 176.601913,258.301910 176.444412,258.635956 
	C176.471664,258.143951 176.498917,257.651947 176.721558,257.396912 
z"/>
<path fill="#16B4F0" opacity="1.000000" stroke="none" 
	d="
M166.385223,255.440506 
	C166.337784,256.244232 166.071594,256.790161 165.805405,257.336090 
	C165.532623,257.142242 165.259842,256.948364 164.987061,256.754486 
	C165.066422,256.212524 165.145798,255.670563 165.453857,254.919434 
	C165.843872,254.867737 166.005157,255.025223 166.385223,255.440506 
z"/>
<path fill="#16B4F0" opacity="1.000000" stroke="none" 
	d="
M240.632263,249.620377 
	C240.965973,248.980011 241.299667,248.339645 241.633377,247.699295 
	C241.851044,247.779388 242.068726,247.859482 242.286392,247.939575 
	C242.117279,248.538254 241.948181,249.136948 241.325806,249.802170 
	C240.872528,249.868713 240.632278,249.620377 240.632263,249.620377 
z"/>
<path fill="#16B4F0" opacity="1.000000" stroke="none" 
	d="
M240.991852,249.993637 
	C240.862411,250.311569 240.613632,250.504578 240.364838,250.697571 
	C240.331528,250.456100 240.298218,250.214630 240.448593,249.796768 
	C240.632278,249.620377 240.872528,249.868713 240.991852,249.993637 
z"/>
<path fill="#F4FAFC" opacity="1.000000" stroke="none" 
	d="
M310.018890,212.014267 
	C309.912201,212.335068 309.722961,212.595947 309.225555,212.898590 
	C309.000000,213.000259 308.981232,212.985794 308.981232,212.985794 
	C309.088867,212.665604 309.278503,212.405121 309.775391,212.102234 
	C310.000641,212.000076 310.018890,212.014267 310.018890,212.014267 
z"/>
<path fill="#F4FAFC" opacity="1.000000" stroke="none" 
	d="
M310.983429,210.987442 
	C311.090546,210.666779 311.280701,210.406891 311.776947,210.103897 
	C312.000000,210.000000 312.010559,210.008194 312.010559,210.008194 
	C311.907501,210.330383 311.720306,210.592468 311.224487,210.897430 
	C311.000000,211.000427 310.983429,210.987442 310.983429,210.987442 
z"/>
<path fill="#F4FAFC" opacity="1.000000" stroke="none" 
	d="
M311.995911,209.994751 
	C312.089966,209.957535 312.188110,209.925568 312.148407,209.950897 
	C312.010559,210.008194 312.000000,210.000000 311.995911,209.994751 
z"/>
<path fill="#F4FAFC" opacity="1.000000" stroke="none" 
	d="
M311.006531,211.008789 
	C310.905579,211.333801 310.717590,211.591827 310.234009,211.902740 
	C310.018890,212.014267 310.000641,212.000076 309.993317,211.990875 
	C310.095123,211.665756 310.284058,211.408371 310.768066,211.098480 
	C310.983429,210.987442 311.000000,211.000427 311.006531,211.008789 
z"/>
<path fill="#F4FAFC" opacity="1.000000" stroke="none" 
	d="
M307.981720,213.986176 
	C308.089020,213.667526 308.278137,213.408661 308.765137,213.097687 
	C308.981232,212.985794 309.000000,213.000259 309.007477,213.009857 
	C308.906250,213.337097 308.717346,213.596298 308.224121,213.898788 
	C308.000000,214.000534 307.981720,213.986176 307.981720,213.986176 
z"/>
<path fill="#F4FAFC" opacity="1.000000" stroke="none" 
	d="
M308.007263,214.009735 
	C307.905884,214.336716 307.716827,214.595810 307.223694,214.898163 
	C307.000000,215.000153 306.983429,214.987427 306.983429,214.987427 
	C307.090027,214.668488 307.278717,214.409317 307.765625,214.098053 
	C307.981720,213.986176 308.000000,214.000534 308.007263,214.009735 
z"/>
<path fill="#F4FAFC" opacity="1.000000" stroke="none" 
	d="
M305.989105,215.991776 
	C306.092834,215.671432 306.280121,215.411209 306.767181,215.099274 
	C306.983429,214.987427 307.000000,215.000153 307.006531,215.008636 
	C306.904999,215.335510 306.715393,215.594193 306.222168,215.896606 
	C306.000000,216.000046 305.989105,215.991776 305.989105,215.991776 
z"/>
<path fill="#F4FAFC" opacity="1.000000" stroke="none" 
	d="
M306.004211,216.005524 
	C305.903351,216.331299 305.715088,216.591339 305.221802,216.895569 
	C305.000000,217.000000 304.990753,216.992966 304.990753,216.992966 
	C305.094208,216.671860 305.281982,216.411560 305.771576,216.101929 
	C305.989105,215.991776 306.000000,216.000046 306.004211,216.005524 
z"/>
<path fill="#F4FAFC" opacity="1.000000" stroke="none" 
	d="
M305.003571,217.004669 
	C304.903015,217.330124 304.715363,217.590759 304.222076,217.895615 
	C304.000000,218.000000 303.989716,217.992249 303.989716,217.992249 
	C304.093842,217.671173 304.282196,217.411118 304.772766,217.102509 
	C304.990753,216.992966 305.000000,217.000000 305.003571,217.004669 
z"/>
<path fill="#F4FAFC" opacity="1.000000" stroke="none" 
	d="
M302.982605,218.986786 
	C303.090485,218.667404 303.280823,218.408737 303.771667,218.101517 
	C303.989716,217.992249 304.000000,218.000000 304.003967,218.005173 
	C303.903870,218.330826 303.717163,218.592239 303.223877,218.897507 
	C303.000000,219.000427 302.982605,218.986786 302.982605,218.986786 
z"/>
<path fill="#F4FAFC" opacity="1.000000" stroke="none" 
	d="
M303.006866,219.009186 
	C302.906403,219.336288 302.718414,219.596313 302.224854,219.899170 
	C301.999939,220.000320 301.978851,219.983978 301.978851,219.983978 
	C302.087524,219.665680 302.277679,219.407318 302.765930,219.097839 
	C302.982605,218.986786 303.000000,219.000427 303.006866,219.009186 
z"/>
<path fill="#F4FAFC" opacity="1.000000" stroke="none" 
	d="
M300.979156,220.984253 
	C301.087463,220.666260 301.276886,220.407730 301.763153,220.096313 
	C301.978851,219.983978 301.999939,220.000320 302.008362,220.011078 
	C301.906952,220.338684 301.717834,220.597626 301.224731,220.899658 
	C301.000000,221.000687 300.979156,220.984253 300.979156,220.984253 
z"/>
<path fill="#F4FAFC" opacity="1.000000" stroke="none" 
	d="
M295.994598,225.993073 
	C296.089142,225.955444 296.189087,225.924744 296.151520,225.952454 
	C296.014008,226.010849 296.000000,226.000000 295.994598,225.993073 
z"/>
<path fill="#F4FAFC" opacity="1.000000" stroke="none" 
	d="
M299.017212,223.013046 
	C298.914307,223.042480 298.811401,223.071915 298.854370,223.050659 
	C299.000214,222.999954 299.017212,223.013046 299.017212,223.013046 
z"/>
<path fill="#F4FAFC" opacity="1.000000" stroke="none" 
	d="
M298.993622,222.991531 
	C299.094818,222.664978 299.283081,222.405182 299.776276,222.101898 
	C300.000702,222.000046 300.020355,222.015396 300.020355,222.015396 
	C299.912689,222.334335 299.722870,222.592987 299.234070,222.902222 
	C299.017212,223.013046 299.000214,222.999954 298.993622,222.991531 
z"/>
<path fill="#F4FAFC" opacity="1.000000" stroke="none" 
	d="
M301.008270,221.011139 
	C300.906677,221.336624 300.717743,221.593536 300.235046,221.903839 
	C300.020355,222.015396 300.000702,222.000046 299.992798,221.990112 
	C300.094330,221.665039 300.282837,221.407837 300.764771,221.096405 
	C300.979156,220.984253 301.000000,221.000687 301.008270,221.011139 
z"/>
<path fill="#ECF3F5" opacity="1.000000" stroke="none" 
	d="
M228.995407,237.003586 
	C228.871078,236.861267 228.751343,236.715363 228.631592,236.569458 
	C228.718964,236.617950 228.806335,236.666443 228.950378,236.852905 
	C229.007065,236.990891 229.000000,237.000000 228.995407,237.003586 
z"/>
</svg>